<svg width="28" height="28" viewBox="0 0 28 28" fill="none" xmlns="http://www.w3.org/2000/svg">
<g clip-path="url(#clip0_5_1513)">
<path d="M26.5333 11.9999H15.9999V1.48883C15.9999 0.755501 15.3999 0.222168 14.6666 0.222168H13.3333C12.5999 0.222168 11.9999 0.755501 11.9999 1.48883V11.9999H1.46661C0.733279 11.9999 0.222168 12.6222 0.222168 13.3333V14.6666C0.222168 15.3999 0.755501 15.9999 1.46661 15.9999H11.9999V26.5555C11.9999 27.2888 12.6222 27.7777 13.3333 27.7777H14.6666C15.3999 27.7777 15.9999 27.2666 15.9999 26.5555V15.9999H26.5333C27.2666 15.9999 27.7777 15.3999 27.7777 14.6666V13.3333C27.7777 12.6222 27.2666 11.9999 26.5333 11.9999Z" fill="#C719C4"/>
<path d="M24 13.1111H14.8889V4.11115V2.57781V1.84448C14.8889 1.53337 14.6223 1.35559 14.2889 1.35559H13.6889C13.3778 1.35559 13.0889 1.53337 13.0889 1.84448V13.1111H1.80005C1.48894 13.1111 1.31116 13.4 1.31116 13.7111V14.3111C1.31116 14.6223 1.48894 14.8889 1.80005 14.8889H13.0889V26.1778C13.0889 26.4889 13.3778 26.6667 13.6889 26.6667H14.2889C14.6 26.6667 14.8889 26.5111 14.8889 26.1778V14.8889H26.1778C26.4889 14.8889 26.6667 14.6223 26.6667 14.3111V13.7111C26.6667 13.4 26.4889 13.1111 26.1778 13.1111H25.3334" fill="#C719C4"/>
<path d="M14.7778 28H13.4444C12.5778 28 11.7778 27.2667 11.7778 26.4444V16.2222H1.57778C0.755556 16.2222 0 15.4222 0 14.5556V13.2222C0 12.4 0.688889 11.7778 1.57778 11.7778H11.7778V1.37778C11.7778 0.488889 12.6444 0 13.4444 0H14.7778C15.6444 0 16.2222 0.555556 16.2222 1.37778V11.7778H26.6444C27.4667 11.7778 28 12.3556 28 13.2222V14.5556C28 15.3556 27.5333 16.2222 26.6444 16.2222H16.2222V26.4444C16.2222 27.3333 15.6 28 14.7778 28ZM1.57778 12.2222C1.02222 12.2222 0.444444 12.6 0.444444 13.2222V14.5556C0.444444 15.1778 1 15.7778 1.57778 15.7778H12C12.1333 15.7778 12.2222 15.8667 12.2222 16V26.4444C12.2222 27.0222 12.8222 27.5556 13.4444 27.5556H14.7778C15.3556 27.5556 15.7778 27.0667 15.7778 26.4444V16C15.7778 15.8667 15.8667 15.7778 16 15.7778H26.6444C27.2444 15.7778 27.5556 15.1556 27.5556 14.5556V13.2222C27.5556 12.5778 27.2222 12.2222 26.6444 12.2222H16C15.8667 12.2222 15.7778 12.1333 15.7778 12V1.37778C15.7778 0.8 15.4 0.444444 14.7778 0.444444H13.4444C12.8444 0.444444 12.2222 0.8 12.2222 1.37778V12C12.2222 12.1333 12.1333 12.2222 12 12.2222H1.57778Z" fill="black"/>
<path d="M14.3777 26.8222H13.7333C13.2444 26.8222 12.8 26.4222 12.8 25.9556V15H2.08884C1.62217 15 1.19995 14.5556 1.19995 14.0889V13.4445C1.19995 12.9778 1.57773 12.6222 2.08884 12.6222H12.8V1.71113C12.8 1.20002 13.2666 0.93335 13.7333 0.93335H14.3777C14.8666 0.93335 15.2 1.24446 15.2 1.71113V7.91113C15.2 8.04446 15.1111 8.13335 14.9777 8.13335C14.8444 8.13335 14.7555 8.04446 14.7555 7.91113V1.71113C14.7555 1.42224 14.5111 1.37779 14.3777 1.37779H13.7333C13.4888 1.37779 13.2444 1.51113 13.2444 1.71113V12.8445C13.2444 12.9778 13.1555 13.0667 13.0222 13.0667H2.08884C1.86662 13.0667 1.6444 13.2 1.6444 13.4445V14.0889C1.6444 14.3334 1.86662 14.5556 2.08884 14.5556H13.0222C13.1555 14.5556 13.2444 14.6445 13.2444 14.7778V25.9556C13.2444 26.1778 13.4888 26.3778 13.7333 26.3778H14.3777C14.6222 26.3778 14.7555 26.1556 14.7555 25.9556V14.7778C14.7555 14.6445 14.8444 14.5556 14.9777 14.5556H26.2444C26.4666 14.5556 26.5777 14.3111 26.5777 14.0889V13.4445C26.5777 13.2667 26.5111 13.0667 26.2444 13.0667H22.6C22.4666 13.0667 22.3777 12.9778 22.3777 12.8445C22.3777 12.7111 22.4666 12.6222 22.6 12.6222H26.2444C26.7111 12.6222 27.0222 12.9556 27.0222 13.4445V14.0889C27.0222 14.5333 26.7555 15 26.2444 15H15.2V25.9556C15.2 26.4445 14.8444 26.8222 14.3777 26.8222Z" fill="black"/>
</g>
<defs>
<clipPath id="clip0_5_1513">
<rect width="28" height="28" fill="white"/>
</clipPath>
</defs>
</svg>
