<svg width="34" height="34" viewBox="0 0 34 34" fill="none" xmlns="http://www.w3.org/2000/svg">
<path d="M2 16.5981C2 14.0598 2 12.7907 2.58714 11.6748C3.17643 10.5589 4.28 9.73458 6.48929 8.08224L8.63214 6.48037C12.6286 3.49533 14.6214 2 17 2C19.3786 2 21.3736 3.49346 25.3679 6.47851L27.5107 8.08037C29.7179 9.73271 30.8236 10.557 31.4107 11.6729C32 12.7888 32 14.0579 32 16.5963V24.5234C32 28.0486 32 29.8093 30.7443 30.9047C29.4886 32 27.47 32 23.4286 32H10.5714C6.53 32 4.51143 32 3.25571 30.9047C2 29.8093 2 28.0486 2 24.5234V16.5981Z" stroke="#C719C4" stroke-width="3"/>
<path d="M22.3572 32V22.6542C22.3572 22.1585 22.1314 21.683 21.7295 21.3325C21.3277 20.982 20.7826 20.785 20.2143 20.785H13.7857C13.2174 20.785 12.6724 20.982 12.2705 21.3325C11.8686 21.683 11.6429 22.1585 11.6429 22.6542V32" stroke="#C719C4" stroke-width="3" stroke-linecap="round" stroke-linejoin="round"/>
</svg>
