<svg width="44" height="38" viewBox="0 0 44 38" fill="none" xmlns="http://www.w3.org/2000/svg">
<path fill-rule="evenodd" clip-rule="evenodd" d="M4.8125 1.03125H43.0938V5.71875H4.8125V1.03125Z" fill="#3E4F59"/>
<path fill-rule="evenodd" clip-rule="evenodd" d="M4.8125 5.71875H43.0938V36.9688H4.8125V5.71875Z" fill="#ACBEC2"/>
<path fill-rule="evenodd" clip-rule="evenodd" d="M4.8125 5.71875V36.9688H28.0699C32.5819 32.8968 36.3554 27.7814 38.9367 22.2376C41.518 16.6937 42.7973 10.9576 42.6207 5.71875H4.8125Z" fill="#E8EDEE"/>
<path fill-rule="evenodd" clip-rule="evenodd" d="M18.0727 9.625L39.1875 15.2323L35.9311 27.2759L14.8162 21.6686L18.0727 9.625Z" fill="#0075D3"/>
<path fill-rule="evenodd" clip-rule="evenodd" d="M6.375 0.25C5.08984 0.25 4.03125 1.30859 4.03125 2.59375V33.8438C4.03125 34.2752 4.38103 34.625 4.8125 34.625C5.24397 34.625 5.59375 34.2752 5.59375 33.8438V2.59375C5.59375 2.15303 5.93427 1.8125 6.375 1.8125H41.5312C41.972 1.8125 42.3125 2.15303 42.3125 2.59375V4.9375H9.5C9.06853 4.9375 8.71875 5.28728 8.71875 5.71875C8.71875 6.15022 9.06853 6.5 9.5 6.5H42.3125V35.4062C42.3125 35.847 41.972 36.1875 41.5312 36.1875H3.25C2.81853 36.1875 2.46875 36.5373 2.46875 36.9688C2.46875 37.4002 2.81853 37.75 3.25 37.75H41.5312C42.8164 37.75 43.875 36.6914 43.875 35.4062C43.875 24.4688 43.875 13.5312 43.875 2.59375C43.875 1.30859 42.8164 0.25 41.5312 0.25H6.375Z" fill="black"/>
<path fill-rule="evenodd" clip-rule="evenodd" d="M39.9688 2.59375C39.5373 2.59375 39.1875 2.94353 39.1875 3.375C39.1875 3.80647 39.5373 4.15625 39.9688 4.15625C40.4002 4.15625 40.75 3.80647 40.75 3.375C40.75 2.94353 40.4002 2.59375 39.9688 2.59375Z" fill="#ED7161"/>
<path fill-rule="evenodd" clip-rule="evenodd" d="M36.8438 2.59375C36.4123 2.59375 36.0625 2.94353 36.0625 3.375C36.0625 3.80647 36.4123 4.15625 36.8438 4.15625C37.2752 4.15625 37.625 3.80647 37.625 3.375C37.625 2.94353 37.2752 2.59375 36.8438 2.59375Z" fill="#ECBA16"/>
<path fill-rule="evenodd" clip-rule="evenodd" d="M33.7188 2.59375C33.2873 2.59375 32.9375 2.94353 32.9375 3.375C32.9375 3.80647 33.2873 4.15625 33.7188 4.15625C34.1502 4.15625 34.5 3.80647 34.5 3.375C34.5 2.94353 34.1502 2.59375 33.7188 2.59375Z" fill="#42B05C"/>
<path fill-rule="evenodd" clip-rule="evenodd" d="M0.90625 36.1875C0.69905 36.1875 0.500335 36.2698 0.353822 36.4163C0.207309 36.5628 0.125 36.7615 0.125 36.9688C0.125 37.176 0.207309 37.3747 0.353822 37.5212C0.500335 37.6677 0.69905 37.75 0.90625 37.75C1.11345 37.75 1.31217 37.6677 1.45868 37.5212C1.60519 37.3747 1.6875 37.176 1.6875 36.9688C1.6875 36.7615 1.60519 36.5628 1.45868 36.4163C1.31217 36.2698 1.11345 36.1875 0.90625 36.1875Z" fill="black"/>
<path fill-rule="evenodd" clip-rule="evenodd" d="M7.15625 4.9375C6.72478 4.9375 6.375 5.28728 6.375 5.71875C6.375 6.15022 6.72478 6.5 7.15625 6.5C7.58772 6.5 7.9375 6.15022 7.9375 5.71875C7.9375 5.28728 7.58772 4.9375 7.15625 4.9375Z" fill="black"/>
<path fill-rule="evenodd" clip-rule="evenodd" d="M18.0724 9.625L14.8162 21.6688L30.4839 25.8298C31.5518 24.5973 32.296 23.1716 32.6781 21.626C33.3514 18.8977 32.8682 15.9149 31.3033 13.1391L18.0724 9.625Z" fill="#0588E2"/>
<path fill-rule="evenodd" clip-rule="evenodd" d="M18.0724 9.62537L17.2637 12.6191L38.3651 18.2725L39.1875 15.233L18.0724 9.62537Z" fill="#FFA221"/>
<path fill-rule="evenodd" clip-rule="evenodd" d="M18.0724 9.625L17.2637 12.6188L32.6827 16.7493C32.4197 15.5252 31.9555 14.3102 31.3033 13.1391L18.0724 9.625Z" fill="#FFC343"/>
<path fill-rule="evenodd" clip-rule="evenodd" d="M18.1182 8.84522C17.7564 8.82388 17.417 9.0571 17.3186 9.42048L14.0624 21.4642C13.949 21.8824 14.1975 22.313 14.6163 22.424L35.7299 28.0316C36.1461 28.1422 36.5733 27.8952 36.6851 27.4793L37.8036 23.3411C37.9163 22.9248 37.6705 22.4959 37.2542 22.3828C36.8375 22.2701 36.4083 22.5168 36.296 22.9337L35.3805 26.3211L15.7744 21.1148L17.813 13.5754L29.6172 16.7371C30.0344 16.8497 30.4638 16.6022 30.5755 16.1847C30.687 15.7675 30.4389 15.339 30.0216 15.228L18.2219 12.0679L18.6233 10.5801L38.2293 15.7864L37.8142 17.3169L33.3205 16.1115C32.9038 15.9999 32.4755 16.2471 32.3638 16.6638C32.2522 17.0805 32.4995 17.5089 32.9162 17.6206L37.4068 18.8245L37.0345 20.2039C36.9217 20.6202 37.1676 21.0491 37.5838 21.1621C38.0001 21.2749 38.429 21.029 38.5421 20.6128C39.0085 18.887 39.4742 17.1611 39.9413 15.4355C40.0537 15.0178 39.8055 14.5883 39.3874 14.4772L18.2738 8.86964C18.2219 8.8558 18.1699 8.84827 18.1182 8.84522Z" fill="black"/>
<path fill-rule="evenodd" clip-rule="evenodd" d="M8.71877 19H31.375V33.0625H8.71877V19Z" fill="#FE73C5"/>
<path fill-rule="evenodd" clip-rule="evenodd" d="M8.71877 19V33.0625L19.8851 33.0625C25.1091 30.6363 29.2053 27.3131 31.375 23.7409V19H8.71877Z" fill="#FE93D3"/>
<path d="M18.0938 30.7187C18.4954 30.7187 18.8209 30.3961 18.8209 29.9981C18.8209 29.6001 18.4954 29.2775 18.0938 29.2775C17.6922 29.2775 17.3666 29.6001 17.3666 29.9981C17.3666 30.3961 17.6922 30.7187 18.0938 30.7187Z" fill="black"/>
<path d="M20.4207 30.7187C20.8223 30.7187 21.1478 30.3961 21.1478 29.9981C21.1478 29.6001 20.8223 29.2775 20.4207 29.2775C20.0191 29.2775 19.6935 29.6001 19.6935 29.9981C19.6935 30.3961 20.0191 30.7187 20.4207 30.7187Z" fill="black"/>
<path d="M22.6021 30.7187C23.0037 30.7187 23.3293 30.3961 23.3293 29.9981C23.3293 29.6001 23.0037 29.2775 22.6021 29.2775C22.2005 29.2775 21.875 29.6001 21.875 29.9981C21.875 30.3961 22.2005 30.7187 22.6021 30.7187Z" fill="black"/>
<path d="M31.375 19H8.71877V22.125H31.375V19Z" fill="#FFC343"/>
<path fill-rule="evenodd" clip-rule="evenodd" d="M8.71877 18.2188C8.28731 18.2188 7.93756 18.5685 7.93752 19C7.93752 20.5625 7.93752 22.125 7.93752 23.6875C7.93752 24.119 8.2873 24.4688 8.71877 24.4688C9.15023 24.4688 9.50002 24.119 9.50002 23.6875V22.9062H28.25C28.6815 22.9062 29.0313 22.5565 29.0313 22.125C29.0313 21.6935 28.6815 21.3438 28.25 21.3438H9.50002V19.7812H30.5938V28.5123C30.5938 28.9438 30.9435 29.2936 31.375 29.2936C31.8065 29.2936 32.1563 28.9438 32.1563 28.5123V19C32.1562 18.5685 31.8065 18.2188 31.375 18.2188H8.71877ZM8.71877 26.0312C8.2873 26.0312 7.93752 26.381 7.93752 26.8125V33.0625C7.93756 33.494 8.28731 33.8437 8.71877 33.8438H31.375C31.8065 33.8437 32.1562 33.494 32.1563 33.0625V31.6678C32.1563 31.2364 31.8065 30.8866 31.375 30.8866C30.9435 30.8866 30.5938 31.2364 30.5938 31.6678V32.2812H9.50002V26.8125C9.50002 26.381 9.15023 26.0312 8.71877 26.0312Z" fill="black"/>
<path fill-rule="evenodd" clip-rule="evenodd" d="M24.3087 24.4688C24.1015 24.4688 23.9028 24.5511 23.7562 24.6976C23.6097 24.8441 23.5274 25.0428 23.5274 25.25C23.5274 25.4572 23.6097 25.6559 23.7562 25.8024C23.9028 25.9489 24.1015 26.0312 24.3087 26.0312H28.25C28.4572 26.0312 28.6559 25.9489 28.8024 25.8024C28.949 25.6559 29.0313 25.4572 29.0313 25.25C29.0313 25.0428 28.949 24.8441 28.8024 24.6976C28.6559 24.5511 28.4572 24.4688 28.25 24.4688H24.3087Z" fill="black"/>
<path fill-rule="evenodd" clip-rule="evenodd" d="M11.8438 26.8125H14.9688V29.9375H11.8438V26.8125Z" fill="#FFC343"/>
<path fill-rule="evenodd" clip-rule="evenodd" d="M11.8438 26.0312C11.6366 26.0313 11.4379 26.1136 11.2914 26.2601C11.1449 26.4066 11.0625 26.6053 11.0625 26.8125V29.9375C11.0625 30.1447 11.1449 30.3434 11.2914 30.4899C11.4379 30.6364 11.6366 30.7187 11.8438 30.7188H14.9688C15.176 30.7187 15.3747 30.6364 15.5212 30.4899C15.6677 30.3434 15.75 30.1447 15.75 29.9375V26.8125C15.75 26.6053 15.6677 26.4066 15.5212 26.2601C15.3747 26.1136 15.176 26.0313 14.9688 26.0312H11.8438ZM12.625 27.5938H14.1875V29.1562H12.625V27.5938Z" fill="black"/>
</svg>
