<svg width="30" height="30" viewBox="0 0 30 30" fill="none" xmlns="http://www.w3.org/2000/svg">
<path d="M29.475 15.2132C30.0187 15.914 29.9531 16.7625 29.3156 17.0953L10.0008 27.2085C9.15233 27.6492 8.0367 27.2859 7.53045 26.4L0.342172 13.8445C-0.0773589 13.1109 0.248422 12.2507 1.05233 11.9296L19.6828 4.50699C20.3062 4.26089 21.1851 4.54214 21.6492 5.1398L29.475 15.2132Z" fill="#FCC21B"/>
<mask id="mask0_6_2275" style="mask-type:luminance" maskUnits="userSpaceOnUse" x="0" y="4" width="30" height="24">
<path d="M29.475 15.2132C30.0187 15.914 29.9531 16.7625 29.3156 17.0953L10.0008 27.2085C9.15233 27.6492 8.0367 27.2859 7.53045 26.4L0.342172 13.8445C-0.0773589 13.1109 0.248422 12.2507 1.05233 11.9296L19.6828 4.50699C20.3062 4.26089 21.1851 4.54214 21.6492 5.1398L29.475 15.2132Z" fill="white"/>
</mask>
<g mask="url(#mask0_6_2275)">
<path d="M25.0453 8.39529L1.97577 18.6117L-0.00469971 15.1054L22.8586 5.60388L25.0453 8.39529Z" fill="#C719C4"/>
</g>
<path d="M27.9516 15.1454C28.2188 15.4969 28.1813 15.9188 27.8578 16.0805L25.2586 17.4071C24.9235 17.5782 24.4289 17.4188 24.1617 17.0532L22.636 14.9602C22.3805 14.6063 22.4438 14.1891 22.7766 14.0297L25.3617 12.7993C25.6805 12.6469 26.1492 12.7993 26.4117 13.1368L27.9516 15.1454Z" fill="#686868"/>
</svg>
