<svg width="34" height="34" viewBox="0 0 34 34" fill="none" xmlns="http://www.w3.org/2000/svg">
<path d="M5.33337 0.333252C4.00729 0.333252 2.73552 0.860036 1.79784 1.79772C0.860158 2.7354 0.333374 4.00717 0.333374 5.33325V33.6666H28.6667C29.9928 33.6666 31.2646 33.1398 32.2022 32.2021C33.1399 31.2644 33.6667 29.9927 33.6667 28.6666V11.9999C33.6667 10.6738 33.1399 9.40207 32.2022 8.46439C31.2646 7.5267 29.9928 6.99992 28.6667 6.99992H5.33337C4.89135 6.99992 4.46742 6.82432 4.15486 6.51176C3.8423 6.1992 3.66671 5.77528 3.66671 5.33325C3.66671 4.89122 3.8423 4.4673 4.15486 4.15474C4.46742 3.84218 4.89135 3.66659 5.33337 3.66659H30.3334V0.333252H5.33337ZM27 21.9999H22V18.6666H27V21.9999Z" fill="#9A9A9A"/>
</svg>
