<svg width="20" height="20" viewBox="0 0 20 20" fill="none" xmlns="http://www.w3.org/2000/svg">
<path d="M4.79582 16.9026L3.33332 6.66675H16.6667L15.2042 16.9026C15.1474 17.2997 14.9493 17.6631 14.6462 17.9259C14.3431 18.1888 13.9553 18.3334 13.5542 18.3334H6.44582C6.04464 18.3334 5.6569 18.1888 5.35381 17.9259C5.05071 17.6631 4.85259 17.2997 4.79582 16.9026ZM17.5 3.33341H13.3333V2.50008C13.3333 2.27907 13.2455 2.06711 13.0892 1.91083C12.933 1.75455 12.721 1.66675 12.5 1.66675H7.49999C7.27898 1.66675 7.06701 1.75455 6.91073 1.91083C6.75445 2.06711 6.66666 2.27907 6.66666 2.50008V3.33341H2.49999C2.27898 3.33341 2.06701 3.42121 1.91073 3.57749C1.75445 3.73377 1.66666 3.94573 1.66666 4.16675C1.66666 4.38776 1.75445 4.59972 1.91073 4.756C2.06701 4.91228 2.27898 5.00008 2.49999 5.00008H17.5C17.721 5.00008 17.933 4.91228 18.0892 4.756C18.2455 4.59972 18.3333 4.38776 18.3333 4.16675C18.3333 3.94573 18.2455 3.73377 18.0892 3.57749C17.933 3.42121 17.721 3.33341 17.5 3.33341Z" fill="#C719C4"/>
</svg>
