<svg width="20" height="20" viewBox="0 0 20 20" fill="none" xmlns="http://www.w3.org/2000/svg">
<path d="M14.2226 1.89306C14.5833 1.74365 14.9699 1.66675 15.3603 1.66675C15.7507 1.66675 16.1373 1.74365 16.4981 1.89306C16.8587 2.04246 17.1865 2.26146 17.4626 2.53752C17.7387 2.81359 17.9577 3.14133 18.1071 3.50204C18.2564 3.86274 18.3333 4.24934 18.3333 4.63976C18.3333 5.03017 18.2564 5.41677 18.1071 5.77748C17.9577 6.13818 17.7387 6.46592 17.4626 6.74199L17.0307 7.17379L12.8263 2.96931L13.2581 2.53752C13.5342 2.26146 13.8619 2.04246 14.2226 1.89306Z" fill="#C719C4"/>
<path d="M11.6478 4.14771L3.04549 12.75C2.94294 12.8525 2.86893 12.9801 2.83077 13.12L1.69604 17.2807C1.61736 17.5692 1.6993 17.8778 1.91076 18.0892C2.12221 18.3007 2.43076 18.3826 2.71927 18.304L6.87996 17.1692C7.01988 17.131 7.14741 17.057 7.24995 16.9545L15.8522 8.35221L11.6478 4.14771Z" fill="#C719C4"/>
</svg>
