<svg width="357" height="265" viewBox="0 0 357 265" fill="none" xmlns="http://www.w3.org/2000/svg">
<path fill-rule="evenodd" clip-rule="evenodd" d="M40 45H236V69H40V45Z" fill="#3E4F59" stroke="white" stroke-width="0.00256" stroke-miterlimit="4.1" stroke-linecap="round" stroke-linejoin="round"/>
<path fill-rule="evenodd" clip-rule="evenodd" d="M40 69H236V229H40V69Z" fill="#ACBEC2" stroke="white" stroke-width="0.00256" stroke-miterlimit="4.1" stroke-linecap="round" stroke-linejoin="round"/>
<path fill-rule="evenodd" clip-rule="evenodd" d="M40 69V229H159.078C182.179 208.152 201.499 181.96 214.716 153.576C227.932 125.192 234.482 95.8228 233.578 69H40Z" fill="#E8EDEE" stroke="white" stroke-width="0.00256" stroke-miterlimit="4.1" stroke-linecap="round" stroke-linejoin="round"/>
<path fill-rule="evenodd" clip-rule="evenodd" d="M48 41C41.42 41 36 46.42 36 53V213C36 215.209 37.7909 217 40 217C42.2092 217 44 215.209 44 213V53C44 50.7435 45.7435 49 48 49H228C230.257 49 232 50.7435 232 53V65H64C61.7909 65 60 66.7909 60 69C60 71.2092 61.7909 73 64 73H232V221C232 223.257 230.257 225 228 225H32C29.7909 225 28 226.791 28 229C28 231.209 29.7909 233 32 233H228C234.58 233 240 227.58 240 221C240 165 240 109 240 53C240 46.42 234.58 41 228 41H48Z" fill="black" stroke="white" stroke-width="4" stroke-miterlimit="4.1" stroke-linecap="round" stroke-linejoin="round"/>
<path fill-rule="evenodd" clip-rule="evenodd" d="M220 53C217.791 53 216 54.7909 216 57C216 59.2092 217.791 61 220 61C222.209 61 224 59.2092 224 57C224 54.7909 222.209 53 220 53Z" fill="#ED7161" stroke="white" stroke-width="4" stroke-miterlimit="4.1" stroke-linecap="round" stroke-linejoin="round"/>
<path fill-rule="evenodd" clip-rule="evenodd" d="M204 53C201.791 53 200 54.7909 200 57C200 59.2092 201.791 61 204 61C206.209 61 208 59.2092 208 57C208 54.7909 206.209 53 204 53Z" fill="#ECBA16" stroke="white" stroke-width="4" stroke-miterlimit="4.1" stroke-linecap="round" stroke-linejoin="round"/>
<path fill-rule="evenodd" clip-rule="evenodd" d="M188 53C185.791 53 184 54.7909 184 57C184 59.2092 185.791 61 188 61C190.209 61 192 59.2092 192 57C192 54.7909 190.209 53 188 53Z" fill="#42B05C" stroke="white" stroke-width="4" stroke-miterlimit="4.1" stroke-linecap="round" stroke-linejoin="round"/>
<path fill-rule="evenodd" clip-rule="evenodd" d="M20 225C18.9391 225 17.9217 225.421 17.1715 226.172C16.4214 226.922 16 227.939 16 229C16 230.061 16.4214 231.078 17.1715 231.828C17.9217 232.579 18.9391 233 20 233C21.0609 233 22.0782 232.579 22.8284 231.828C23.5785 231.078 24 230.061 24 229C24 227.939 23.5785 226.922 22.8284 226.172C22.0782 225.421 21.0609 225 20 225Z" fill="black" stroke="white" stroke-width="4" stroke-miterlimit="4.1" stroke-linecap="round" stroke-linejoin="round"/>
<path fill-rule="evenodd" clip-rule="evenodd" d="M52 65C49.7909 65 48 66.7909 48 69C48 71.2092 49.7909 73 52 73C54.2092 73 56 71.2092 56 69C56 66.7909 54.2092 65 52 65Z" fill="black" stroke="white" stroke-width="4" stroke-miterlimit="4.1" stroke-linecap="round" stroke-linejoin="round"/>
<path fill-rule="evenodd" clip-rule="evenodd" d="M106.28 149C106.28 131.439 120.537 117.203 138.124 117.203C155.71 117.203 169.968 131.439 169.968 149C169.968 166.561 155.71 180.797 138.124 180.797C120.537 180.797 106.28 166.561 106.28 149Z" fill="#FFA221" stroke="white" stroke-width="0.00256" stroke-miterlimit="4.1" stroke-linecap="round" stroke-linejoin="round"/>
<path fill-rule="evenodd" clip-rule="evenodd" d="M116.312 125.836C110.138 131.635 106.281 139.868 106.281 149C106.281 166.561 120.538 180.797 138.125 180.797C150.945 180.797 161.99 173.231 167.039 162.328C160.795 152.007 151.677 142.897 140.789 136.102C133.135 131.343 124.807 127.85 116.312 125.836Z" fill="#FFC343" stroke="white" stroke-width="0.00256" stroke-miterlimit="4.1" stroke-linecap="round" stroke-linejoin="round"/>
<path fill-rule="evenodd" clip-rule="evenodd" d="M138.125 123.773C137.057 123.774 136.034 124.193 135.279 124.939C134.525 125.685 134.101 126.696 134.102 127.75V131.25C129.693 132.827 126.445 136.907 126.445 141.758C126.445 147.997 131.816 152.977 138.125 152.977C140.266 152.977 141.75 154.488 141.75 156.242C141.75 157.997 140.266 159.5 138.125 159.5C135.984 159.5 134.5 157.997 134.5 156.242C134.5 155.188 134.077 154.177 133.322 153.431C132.568 152.685 131.544 152.266 130.477 152.266C129.947 152.265 129.423 152.367 128.934 152.567C128.445 152.766 128 153.059 127.626 153.428C127.251 153.798 126.954 154.236 126.752 154.719C126.549 155.202 126.445 155.72 126.445 156.242C126.445 161.093 129.693 165.173 134.102 166.75V170.25C134.101 171.304 134.525 172.315 135.279 173.061C136.034 173.807 137.057 174.226 138.125 174.227C139.193 174.226 140.216 173.807 140.971 173.061C141.725 172.315 142.149 171.304 142.148 170.25V166.75C146.554 165.171 149.797 161.091 149.797 156.242C149.797 150.003 144.434 145.023 138.125 145.023C135.984 145.023 134.5 143.512 134.5 141.758C134.5 140.003 135.984 138.5 138.125 138.5C140.266 138.5 141.75 140.003 141.75 141.758C141.75 142.812 142.173 143.823 142.928 144.569C143.682 145.315 144.706 145.734 145.773 145.734C146.841 145.734 147.865 145.315 148.619 144.569C149.374 143.823 149.797 142.812 149.797 141.758C149.797 136.909 146.554 132.829 142.148 131.25V127.75C142.149 126.696 141.725 125.685 140.971 124.939C140.216 124.193 139.193 123.774 138.125 123.773Z" fill="black" stroke="black" stroke-width="0.00210032" stroke-miterlimit="4.1" stroke-linecap="round" stroke-linejoin="round"/>
<path fill-rule="evenodd" clip-rule="evenodd" d="M138.555 87.3359C136.164 87.3199 133.78 87.443 131.414 87.703C118.795 89.0886 106.706 94.3326 97.0235 102.945C96.6309 103.295 96.3111 103.718 96.0822 104.191C95.8533 104.664 95.7198 105.177 95.6893 105.702C95.6589 106.226 95.732 106.751 95.9047 107.248C96.0773 107.744 96.346 108.201 96.6954 108.594C97.0447 108.986 97.4679 109.306 97.9408 109.535C98.4137 109.764 98.9271 109.897 99.4517 109.928C99.9762 109.958 100.502 109.885 100.998 109.713C101.494 109.54 101.952 109.271 102.344 108.922C119.182 93.9441 144.369 90.6345 165.008 102.539C168.425 104.51 171.536 106.793 174.336 109.336C175.122 110.048 176.158 110.42 177.217 110.368C178.276 110.317 179.272 109.847 179.985 109.062C180.698 108.278 181.071 107.242 181.021 106.183C180.971 105.124 180.503 104.128 179.719 103.414C176.5 100.491 172.914 97.8666 169 95.609C159.397 90.0702 148.916 87.4001 138.555 87.3359ZM189.32 118.914C188.798 118.955 188.288 119.098 187.82 119.336C186.875 119.816 186.158 120.651 185.829 121.659C185.499 122.667 185.583 123.765 186.063 124.711C193.438 139.239 194.079 156.82 186.578 172.351L184.789 160.609C184.629 159.561 184.06 158.619 183.206 157.991C182.351 157.362 181.283 157.099 180.234 157.258C179.186 157.418 178.244 157.987 177.616 158.841C176.987 159.695 176.724 160.764 176.883 161.812L180.359 184.648C180.449 185.242 180.672 185.808 181.01 186.304C181.349 186.8 181.795 187.213 182.315 187.513C182.835 187.813 183.416 187.992 184.014 188.038C184.613 188.083 185.214 187.992 185.773 187.773L207.313 179.367C208.299 178.98 209.092 178.217 209.517 177.246C209.942 176.275 209.964 175.175 209.578 174.187C209.193 173.199 208.43 172.404 207.459 171.978C206.488 171.552 205.387 171.529 204.398 171.914L193.648 176.109C202.388 158.236 201.712 137.87 193.195 121.094C192.957 120.625 192.629 120.208 192.23 119.866C191.83 119.524 191.367 119.264 190.867 119.101C190.369 118.938 189.843 118.875 189.32 118.914Z" fill="black" stroke="white" stroke-width="4" stroke-miterlimit="4.1" stroke-linecap="round" stroke-linejoin="round"/>
<path fill-rule="evenodd" clip-rule="evenodd" d="M91.3906 109.961C90.9915 109.991 90.5991 110.08 90.2266 110.226L68.6875 118.633C67.7006 119.02 66.9076 119.782 66.4828 120.754C66.058 121.725 66.0361 122.825 66.4219 123.812C66.8073 124.801 67.5695 125.595 68.5409 126.022C69.5123 126.448 70.6132 126.471 71.6016 126.086L82.3516 121.891C71.811 143.448 74.9715 168.625 89.0625 186.781C89.7124 187.619 90.6682 188.164 91.72 188.298C92.7718 188.431 93.8336 188.141 94.6719 187.492C95.5096 186.842 96.0551 185.886 96.1884 184.835C96.3217 183.783 96.0319 182.721 95.3828 181.883C83.1799 166.159 80.3616 144.396 89.4219 125.641L91.211 137.391C91.3708 138.439 91.9404 139.381 92.7944 140.009C93.6485 140.638 94.7173 140.901 95.7656 140.742C96.8139 140.582 97.7558 140.013 98.3843 139.159C99.0128 138.305 99.2764 137.236 99.1172 136.187L95.6406 113.351C95.4897 112.355 94.9682 111.452 94.1802 110.823C93.3922 110.194 92.3959 109.887 91.3906 109.961ZM175.508 188.148C174.82 188.29 174.181 188.611 173.656 189.078C156.819 204.056 131.631 207.365 110.992 195.461C110.073 194.932 108.982 194.789 107.958 195.065C106.934 195.34 106.061 196.011 105.531 196.93C105.002 197.849 104.86 198.94 105.135 199.964C105.411 200.988 106.081 201.861 107 202.391C130.637 216.025 159.612 212.28 178.977 195.055C179.369 194.705 179.689 194.282 179.918 193.809C180.147 193.336 180.28 192.823 180.311 192.298C180.341 191.774 180.268 191.248 180.095 190.752C179.923 190.256 179.654 189.799 179.305 189.406C178.838 188.882 178.241 188.489 177.575 188.269C176.908 188.048 176.195 188.006 175.508 188.148Z" fill="black" stroke="white" stroke-width="4" stroke-miterlimit="4.1" stroke-linecap="round" stroke-linejoin="round"/>
<path fill-rule="evenodd" clip-rule="evenodd" d="M138.125 113.203C118.38 113.203 102.281 129.274 102.281 149C102.281 168.726 118.38 184.797 138.125 184.797C157.871 184.797 173.969 168.726 173.969 149C173.969 142.818 172.392 136.975 169.617 131.891C169.365 131.429 169.025 131.022 168.616 130.692C168.207 130.363 167.737 130.117 167.233 129.969C166.728 129.821 166.2 129.774 165.677 129.83C165.155 129.886 164.649 130.045 164.188 130.297C163.258 130.805 162.568 131.662 162.269 132.678C161.97 133.695 162.087 134.788 162.594 135.719C164.747 139.664 165.969 144.175 165.969 149C165.969 164.396 153.553 176.797 138.125 176.797C122.697 176.797 110.281 164.396 110.281 149C110.281 133.604 122.697 121.203 138.125 121.203C143.51 121.203 148.506 122.717 152.758 125.344C153.659 125.9 154.745 126.076 155.776 125.833C156.807 125.59 157.7 124.947 158.258 124.047C158.534 123.6 158.72 123.103 158.805 122.585C158.889 122.066 158.871 121.536 158.75 121.024C158.63 120.513 158.41 120.03 158.103 119.604C157.796 119.177 157.408 118.815 156.961 118.539C151.488 115.157 145.017 113.203 138.125 113.203Z" fill="black" stroke="white" stroke-width="4" stroke-miterlimit="4.1" stroke-linecap="round" stroke-linejoin="round"/>
<path d="M220.717 182.738L246.067 197.375L325.9 59.1031L300.551 44.4671L220.717 182.738Z" fill="#FB05FF"/>
<path d="M300.549 44.4646L325.899 59.1006L337.875 38.358L312.525 23.722L300.549 44.4646Z" fill="#9E9E9E"/>
<path d="M337.878 38.3555L312.527 23.7195L318.188 13.9142C321.675 7.87426 329.399 5.80429 335.439 9.29154L338.917 11.2992C344.956 14.7865 347.026 22.5103 343.539 28.5503L337.878 38.3555Z" fill="#FFF700"/>
<path d="M246.068 197.374L218.756 215.407L220.717 182.738L246.068 197.374Z" fill="#FFE1C2"/>
<path d="M349.236 17.7786C348.045 13.3356 345.196 9.62207 341.213 7.32238L337.735 5.31429C333.752 3.0146 329.111 2.40387 324.668 3.59397C320.224 4.78493 316.511 7.63432 314.211 11.6179L216.74 180.442C216.387 181.053 216.188 181.731 216.14 182.422C216.139 182.437 216.134 182.449 216.133 182.464L214.432 210.815H183.003C180.467 210.815 178.411 212.872 178.411 215.408C178.411 217.943 180.467 220 183.003 220C183.003 220 219.195 219.986 219.306 219.96C220.001 219.876 220.681 219.64 221.287 219.24L248.598 201.207C248.613 201.197 248.621 201.183 248.635 201.173C249.195 200.795 249.685 200.295 250.046 199.671L347.516 30.8461C349.816 26.8625 350.427 22.222 349.236 17.7786ZM324.222 52.8241L306.825 42.7802L314.208 29.9925L331.605 40.0363L324.222 52.8241ZM327.045 12.4655C329.12 11.9099 331.284 12.1951 333.142 13.2683L336.62 15.2763C338.479 16.3495 339.809 18.0825 340.365 20.1559C340.92 22.2297 340.635 24.395 339.562 26.2539L336.197 32.0819L318.8 22.0381L322.165 16.21C323.238 14.3507 324.971 13.0212 327.045 12.4655ZM223.891 206.514L224.856 190.43L237.338 197.636L223.891 206.514ZM244.387 191.102L226.99 181.058L302.233 50.7337L319.629 60.7776L244.387 191.102Z" fill="#231F20"/>
<path d="M160.654 210.815H157.592C155.056 210.815 153 212.872 153 215.408C153 217.943 155.056 220 157.592 220H160.654C163.19 220 165.246 217.943 165.246 215.408C165.246 212.872 163.19 210.815 160.654 210.815Z" fill="#231F20"/>
</svg>
