<svg width="36" height="39" viewBox="0 0 36 39" fill="none" xmlns="http://www.w3.org/2000/svg">
<path d="M21.9175 3.86555C21.9571 3.81579 22.0063 3.7746 22.0623 3.74447C22.1182 3.71434 22.1798 3.69591 22.2431 3.6903C22.3064 3.68469 22.3702 3.69201 22.4306 3.71182C22.491 3.73164 22.5467 3.76352 22.5944 3.80555L24.3231 5.32805L18.8856 12.1249H22.4856L26.4344 7.18992L29.5319 9.9218C29.6235 10.0027 29.6798 10.1162 29.6889 10.2381C29.698 10.36 29.6592 10.4806 29.5806 10.5743L28.2869 12.1249H31.9319C32.3834 11.4639 32.5777 10.6607 32.4782 9.86645C32.3788 9.07218 31.9924 8.34167 31.3919 7.81242L24.4544 1.6943C24.1197 1.39955 23.7285 1.17613 23.3045 1.03766C22.8806 0.899192 22.4329 0.848594 21.9888 0.888953C21.5447 0.929313 21.1134 1.05978 20.7214 1.2724C20.3294 1.48501 19.9848 1.7753 19.7088 2.12555L11.83 12.1249H15.4112L21.9175 3.86555ZM4.84375 11.1874C4.47079 11.1874 4.1131 11.3356 3.84938 11.5993C3.58566 11.863 3.4375 12.2207 3.4375 12.5937C3.4375 12.9666 3.58566 13.3243 3.84938 13.588C4.1131 13.8518 4.47079 13.9999 4.84375 13.9999H29.2188C30.8349 13.9999 32.3849 14.6419 33.5277 15.7847C34.6705 16.9275 35.3125 18.4775 35.3125 20.0937V32.2812C35.3125 33.8973 34.6705 35.4473 33.5277 36.5901C32.3849 37.7329 30.8349 38.3749 29.2188 38.3749H6.71875C5.10259 38.3749 3.55262 37.7329 2.40982 36.5901C1.26702 35.4473 0.625 33.8973 0.625 32.2812V12.5937C0.625 11.4748 1.06947 10.4017 1.86064 9.61057C2.65181 8.8194 3.72487 8.37492 4.84375 8.37492H12.9437L10.7088 11.1874H4.84375ZM24.0625 26.6562C24.0625 27.4324 24.6925 28.0624 25.4688 28.0624H29.2188C29.5917 28.0624 29.9494 27.9143 30.2131 27.6505C30.4768 27.3868 30.625 27.0291 30.625 26.6562C30.625 26.2832 30.4768 25.9255 30.2131 25.6618C29.9494 25.3981 29.5917 25.2499 29.2188 25.2499H25.4688C25.0958 25.2499 24.7381 25.3981 24.4744 25.6618C24.2107 25.9255 24.0625 26.2832 24.0625 26.6562Z" fill="#C719C4"/>
</svg>
