<svg width="24" height="15" viewBox="0 0 24 15" fill="none" xmlns="http://www.w3.org/2000/svg">
<path fill-rule="evenodd" clip-rule="evenodd" d="M1.00199e-06 1.9167C-0.000470088 1.45363 0.165187 1.00607 0.466288 0.656921C0.76739 0.307776 1.18353 0.0807071 1.63764 0.0177707C2.09174 -0.0451656 2.55304 0.0602963 2.93608 0.314622C3.31912 0.568948 3.59796 0.954904 3.72094 1.401C6.18092 9.70072 17.8188 9.702 20.2838 1.40738C20.3531 1.1648 20.4692 0.938445 20.6254 0.741356C20.7816 0.544268 20.9748 0.380335 21.194 0.258994C21.4131 0.137653 21.6539 0.0612994 21.9023 0.034328C22.1508 0.00735653 22.4021 0.0302999 22.6418 0.101838C22.8814 0.173375 23.1047 0.292094 23.2988 0.451162C23.4929 0.61023 23.6539 0.806505 23.7726 1.02869C23.8913 1.25088 23.9653 1.49458 23.9904 1.74579C24.0155 1.99699 23.9912 2.25073 23.9188 2.4924C23.4871 3.98284 22.7924 5.38222 21.8682 6.62311L23.0812 7.84854C23.2621 8.02526 23.4064 8.2366 23.5056 8.47025C23.6048 8.70391 23.657 8.95518 23.659 9.20942C23.6611 9.46366 23.613 9.71576 23.5176 9.95103C23.4222 10.1863 23.2814 10.4 23.1034 10.5797C22.9253 10.7594 22.7137 10.9015 22.4807 10.9976C22.2478 11.0938 21.9982 11.1421 21.7465 11.1398C21.4949 11.1375 21.2462 11.0845 21.015 10.9841C20.7839 10.8836 20.5748 10.7377 20.4001 10.5547L19.124 9.26544C18.4607 9.72446 17.7539 10.1157 17.014 10.4334L17.321 11.5899C17.4375 12.0757 17.3613 12.5883 17.1087 13.0181C16.8562 13.4479 16.4473 13.7609 15.9694 13.8902C15.4915 14.0195 14.9825 13.9549 14.5511 13.7102C14.1197 13.4655 13.8002 13.06 13.6607 12.5805L13.3436 11.387C12.4528 11.4801 11.5532 11.4801 10.6625 11.387L10.3466 12.5805C10.2166 13.071 9.89901 13.4893 9.46373 13.7433C9.02846 13.9973 8.51115 14.0662 8.0256 13.9348C7.54004 13.8035 7.12603 13.4826 6.87463 13.0429C6.62323 12.6031 6.55503 12.0805 6.68505 11.5899L6.99081 10.4321C6.25139 10.1148 5.545 9.72394 4.88207 9.26544L3.60596 10.5547C3.43122 10.7377 3.22216 10.8836 2.99098 10.9841C2.75981 11.0845 2.51114 11.1375 2.2595 11.1398C2.00786 11.1421 1.75827 11.0938 1.52531 10.9976C1.29236 10.9015 1.08069 10.7594 0.902657 10.5797C0.724627 10.4 0.583802 10.1863 0.4884 9.95103C0.392997 9.71576 0.344927 9.46366 0.346994 9.20942C0.349061 8.95518 0.401224 8.70391 0.50044 8.47025C0.599656 8.2366 0.743937 8.02526 0.924865 7.84854L2.1378 6.62311C1.21575 5.38425 0.522376 3.98754 0.0909712 2.50006C0.0309706 2.31153 0.000282198 2.11474 1.00199e-06 1.9167Z" fill="#C719C4"/>
</svg>
