<svg width="8" height="5" viewBox="0 0 8 5" fill="none" xmlns="http://www.w3.org/2000/svg">
<path d="M0 0.326087C0 0.239603 0.0383115 0.156662 0.106507 0.0955086C0.174702 0.0343554 0.267194 0 0.363636 0H7.63636C7.73281 0 7.8253 0.0343554 7.89349 0.0955086C7.96169 0.156662 8 0.239603 8 0.326087C8 0.412571 7.96169 0.495512 7.89349 0.556665C7.8253 0.617818 7.73281 0.652174 7.63636 0.652174H0.363636C0.267194 0.652174 0.174702 0.617818 0.106507 0.556665C0.0383115 0.495512 0 0.412571 0 0.326087ZM1.21212 2.5C1.21212 2.41352 1.25043 2.33057 1.31863 2.26942C1.38682 2.20827 1.47932 2.17391 1.57576 2.17391H6.42424C6.52068 2.17391 6.61318 2.20827 6.68137 2.26942C6.74957 2.33057 6.78788 2.41352 6.78788 2.5C6.78788 2.58648 6.74957 2.66942 6.68137 2.73058C6.61318 2.79173 6.52068 2.82609 6.42424 2.82609H1.57576C1.47932 2.82609 1.38682 2.79173 1.31863 2.73058C1.25043 2.66942 1.21212 2.58648 1.21212 2.5ZM2.66667 4.67391C2.66667 4.58743 2.70498 4.50449 2.77317 4.44333C2.84137 4.38218 2.93386 4.34783 3.0303 4.34783H4.9697C5.06614 4.34783 5.15863 4.38218 5.22683 4.44333C5.29502 4.50449 5.33333 4.58743 5.33333 4.67391C5.33333 4.7604 5.29502 4.84334 5.22683 4.90449C5.15863 4.96564 5.06614 5 4.9697 5H3.0303C2.93386 5 2.84137 4.96564 2.77317 4.90449C2.70498 4.84334 2.66667 4.7604 2.66667 4.67391Z" fill="#009C9F"/>
</svg>
