<svg width="31" height="30" viewBox="0 0 31 30" fill="none" xmlns="http://www.w3.org/2000/svg">
<mask id="path-1-inside-1_189_2279" fill="white">
<path d="M7 9.75241H1.30072C4.00017 2.57535 11.7511 -1.51029 19.3063 0.520444C27.355 2.68565 32.1364 10.9733 29.9844 19.0297C23.5 36.317 0.5 31.7774 0.5 15.1321"/>
</mask>
<path d="M7 11.7524C8.10457 11.7524 9 10.857 9 9.75241C9 8.64784 8.10457 7.75241 7 7.75241V11.7524ZM1.30072 9.75241L-0.571246 9.04832C-0.802295 9.66261 -0.717255 10.3512 -0.343691 10.8908C0.0298724 11.4304 0.644414 11.7524 1.30072 11.7524V9.75241ZM19.3063 0.520444L19.8259 -1.41089L19.8255 -1.411L19.3063 0.520444ZM29.9844 19.0297L31.857 19.7321C31.8799 19.671 31.8998 19.6089 31.9167 19.5458L29.9844 19.0297ZM2.5 15.1321C2.5 14.0275 1.60457 13.1321 0.5 13.1321C-0.604569 13.1321 -1.5 14.0275 -1.5 15.1321H2.5ZM7 9.75241V7.75241H1.30072V9.75241V11.7524H7V9.75241ZM1.30072 9.75241L3.17269 10.4565C5.51351 4.23293 12.2364 0.691137 18.7872 2.45189L19.3063 0.520444L19.8255 -1.411C11.2658 -3.71171 2.48684 0.917771 -0.571246 9.04832L1.30072 9.75241ZM19.3063 0.520444L18.7868 2.45178C25.7694 4.33019 29.9197 11.5221 28.0522 18.5136L29.9844 19.0297L31.9167 19.5458C34.3531 10.4244 28.9407 1.04111 19.8259 -1.41089L19.3063 0.520444ZM29.9844 19.0297L28.1118 18.3273C25.2148 26.0507 18.7798 28.7395 13.128 27.8309C7.4331 26.9155 2.5 22.371 2.5 15.1321H0.5H-1.5C-1.5 24.5384 5.0669 30.5864 12.4931 31.7802C19.9624 32.981 28.2696 29.296 31.857 19.7321L29.9844 19.0297Z" fill="#9A9A9A" mask="url(#path-1-inside-1_189_2279)"/>
<path d="M11.3008 11.7638H13.3027C13.4859 11.7638 13.6624 11.7824 13.834 11.8195L14.0039 11.8625H14.0059C14.1753 11.9119 14.3332 11.9785 14.4805 12.0607L14.624 12.1476C14.8082 12.2692 14.9621 12.412 15.0889 12.5744C15.1828 12.6947 15.2568 12.8214 15.3135 12.9543L15.3643 13.089C15.4087 13.2258 15.433 13.3613 15.4385 13.4982L15.4375 13.6359C15.4281 13.8192 15.3861 13.9989 15.3076 14.1779C15.2483 14.3132 15.1719 14.4398 15.0781 14.5578L14.9785 14.6721C14.8308 14.828 14.6624 14.959 14.4668 15.0646L13.8682 15.3879L14.2041 15.9797L15.4316 18.1447V18.1467C15.4299 18.1484 15.4201 18.1561 15.3916 18.1691C15.3732 18.1769 15.3494 18.1846 15.3184 18.1867L15.2393 18.1779L15.2363 18.1769L15.1836 18.1486C15.1752 18.1415 15.1688 18.1354 15.1631 18.1262L13.7891 15.7033L13.5977 15.3654H11.4355V18.1369L11.4346 18.1388L11.4326 18.1408L11.4268 18.1457C11.4153 18.1558 11.4008 18.1642 11.3809 18.1721C11.348 18.1825 11.3226 18.1867 11.3008 18.1867C11.2772 18.1867 11.2516 18.1816 11.2207 18.1711L11.1758 18.1457C11.1712 18.1417 11.169 18.1377 11.167 18.1349V11.8137L11.1758 11.8039C11.184 11.7967 11.1983 11.7875 11.2207 11.7785C11.2516 11.768 11.2773 11.7639 11.3008 11.7638ZM11.4355 15.2883H13.3027C13.4784 15.2883 13.6521 15.2669 13.8223 15.2219L13.9912 15.1691C14.1603 15.1076 14.3146 15.0246 14.4541 14.924L14.5889 14.8176L14.5977 14.8097C14.7251 14.6956 14.839 14.5631 14.9316 14.4113L15.0166 14.2531C15.1169 14.0396 15.1719 13.8087 15.1719 13.5646C15.1719 13.3228 15.1167 13.0932 15.0176 12.881H15.0186C14.9409 12.7135 14.8384 12.5662 14.7188 12.4387L14.5938 12.3176C14.4168 12.1617 14.2164 12.0446 13.9971 11.964H13.998C13.7704 11.8785 13.537 11.841 13.3027 11.841H11.4355V15.2883Z" fill="white" stroke="#9A9A9A" stroke-width="1.33333"/>
<path d="M18.07 13.0883H20.072C20.2171 13.0883 20.3603 13.0993 20.5016 13.1234C20.5739 13.1366 20.6446 13.1529 20.7136 13.1713L20.9177 13.2357C20.9838 13.2598 21.0478 13.2865 21.11 13.3158L21.2917 13.4115C21.3499 13.4457 21.4059 13.4831 21.4597 13.5219L21.614 13.6439C21.6625 13.6867 21.7085 13.7315 21.7516 13.7777L21.8718 13.9203C21.9468 14.0194 22.0084 14.1218 22.0583 14.2279C22.0831 14.2807 22.1047 14.3348 22.1237 14.39L22.1725 14.56C22.1962 14.6688 22.2087 14.7782 22.2087 14.8891C22.2087 14.9999 22.1962 15.1093 22.1725 15.2182C22.1456 15.3328 22.1082 15.4426 22.0593 15.5473C22.0335 15.6014 22.0047 15.6547 21.9733 15.7064L21.8718 15.8578C21.7996 15.953 21.7113 16.0458 21.6091 16.1371C21.5618 16.1785 21.512 16.2185 21.4597 16.2562L21.2917 16.3656C21.2327 16.4003 21.1724 16.433 21.11 16.4623L20.9177 16.5424C20.8514 16.5665 20.7834 16.5876 20.7145 16.6059L20.5056 16.6518L20.4997 16.6527C20.3611 16.6779 20.2184 16.6898 20.072 16.6898H18.2048V19.4594C18.2027 19.462 18.1987 19.4657 18.1931 19.4711L18.1442 19.4975C18.1248 19.5046 18.1015 19.5092 18.07 19.5092L17.9899 19.4955L17.945 19.4701C17.94 19.4657 17.9374 19.4628 17.9362 19.4613V13.1361C17.9367 13.1356 17.9373 13.1349 17.9382 13.1342L17.945 13.1283L17.9509 13.1225C17.9548 13.1189 17.9649 13.1117 17.9899 13.102C18.0145 13.0931 18.0393 13.0883 18.07 13.0883ZM18.2048 16.6127H20.072C20.2457 16.6127 20.4198 16.5913 20.5905 16.5463L20.7604 16.4936L20.7673 16.4906C20.9296 16.4296 21.0821 16.35 21.2224 16.2494L21.3581 16.142L21.3669 16.1342C21.4943 16.02 21.6083 15.8875 21.7009 15.7357L21.7858 15.5775L21.7878 15.5746C21.8888 15.3565 21.9391 15.1263 21.9391 14.8891C21.9391 14.7124 21.9109 14.537 21.8532 14.3676L21.7858 14.2006C21.7084 14.0356 21.6075 13.8904 21.4899 13.7641L21.3669 13.6439L21.3581 13.6361L21.2233 13.5297C21.1303 13.4626 21.0307 13.4031 20.9245 13.3529L20.7604 13.2846C20.5362 13.203 20.3037 13.1654 20.072 13.1654H18.2048V16.6127Z" fill="white" stroke="#9A9A9A" stroke-width="1.33333"/>
</svg>
