<svg width="35" height="35" viewBox="0 0 35 35" fill="none" xmlns="http://www.w3.org/2000/svg">
<path d="M13.5 17.5C13.5 18.6046 12.6046 19.5 11.5 19.5C10.3954 19.5 9.5 18.6046 9.5 17.5C9.5 16.3954 10.3954 15.5 11.5 15.5C12.6046 15.5 13.5 16.3954 13.5 17.5Z" fill="#9A9A9A"/>
<path d="M13.5 17.5C13.5 18.6046 12.6046 19.5 11.5 19.5C10.3954 19.5 9.5 18.6046 9.5 17.5C9.5 16.3954 10.3954 15.5 11.5 15.5C12.6046 15.5 13.5 16.3954 13.5 17.5Z" fill="#9A9A9A"/>
<path d="M19.5 17.5C19.5 18.6046 18.6046 19.5 17.5 19.5C16.3954 19.5 15.5 18.6046 15.5 17.5C15.5 16.3954 16.3954 15.5 17.5 15.5C18.6046 15.5 19.5 16.3954 19.5 17.5Z" fill="#9A9A9A"/>
<path d="M19.5 17.5C19.5 18.6046 18.6046 19.5 17.5 19.5C16.3954 19.5 15.5 18.6046 15.5 17.5C15.5 16.3954 16.3954 15.5 17.5 15.5C18.6046 15.5 19.5 16.3954 19.5 17.5Z" fill="#9A9A9A"/>
<path d="M25.5 17.5C25.5 18.6046 24.6046 19.5 23.5 19.5C22.3954 19.5 21.5 18.6046 21.5 17.5C21.5 16.3954 22.3954 15.5 23.5 15.5C24.6046 15.5 25.5 16.3954 25.5 17.5Z" fill="#9A9A9A"/>
<path d="M25.5 17.5C25.5 18.6046 24.6046 19.5 23.5 19.5C22.3954 19.5 21.5 18.6046 21.5 17.5C21.5 16.3954 22.3954 15.5 23.5 15.5C24.6046 15.5 25.5 16.3954 25.5 17.5Z" fill="#9A9A9A"/>
<path d="M32.5 17.5C32.5 25.7843 25.7843 32.5 17.5 32.5C9.21573 32.5 2.5 25.7843 2.5 17.5C2.5 9.21573 9.21573 2.5 17.5 2.5C25.7843 2.5 32.5 9.21573 32.5 17.5Z" stroke="#9A9A9A" stroke-width="2"/>
</svg>
