<svg width="184" height="200" viewBox="0 0 184 200" fill="none" xmlns="http://www.w3.org/2000/svg">
<path d="M99.4531 45H94.1302C93.849 45 93.5781 45.0573 93.3177 45.1615C93.0573 45.2708 92.8229 45.4271 92.625 45.625C92.4271 45.8229 92.2708 46.0573 92.1615 46.3177C92.0573 46.5781 92 46.849 92 47.1302V66.2969C92 66.5781 92.0573 66.849 92.1615 67.1094C92.2708 67.3698 92.4271 67.6042 92.625 67.8021C92.8229 68 93.0573 68.1562 93.3177 68.2656C93.5781 68.3698 93.849 68.4271 94.1302 68.4271C94.4115 68.4271 94.6823 68.3698 94.9479 68.2656C95.2083 68.1562 95.4375 68 95.6354 67.8021C95.8385 67.6042 95.9896 67.3698 96.099 67.1094C96.2083 66.849 96.2604 66.5781 96.2604 66.2969V59.9063H99.2031L102.87 67.25C103 67.5 103.167 67.7188 103.38 67.9063C103.594 68.0885 103.833 68.2292 104.104 68.3177C104.37 68.4063 104.646 68.4427 104.927 68.4219C105.208 68.401 105.479 68.3281 105.729 68.2031C105.984 68.0729 106.203 67.9063 106.385 67.6927C106.573 67.4792 106.708 67.2396 106.797 66.9688C106.891 66.7031 106.922 66.4271 106.901 66.1458C106.885 65.8646 106.813 65.599 106.682 65.3438L103.391 58.7552C104.078 58.3333 104.677 57.8073 105.198 57.1823C105.714 56.5625 106.115 55.8698 106.406 55.1146C106.698 54.3594 106.865 53.5781 106.901 52.7708C106.938 51.9635 106.844 51.1719 106.62 50.3906C106.396 49.6146 106.057 48.8906 105.599 48.224C105.141 47.5573 104.589 46.9792 103.943 46.4948C103.297 46.0104 102.589 45.6354 101.818 45.3802C101.052 45.125 100.266 45 99.4531 45ZM96.2604 49.2604H99.4531C99.8802 49.2604 100.286 49.3385 100.677 49.5052C101.068 49.6667 101.411 49.8958 101.714 50.1979C102.01 50.4948 102.245 50.8385 102.406 51.2344C102.568 51.625 102.651 52.0313 102.651 52.4531C102.651 52.8802 102.568 53.2865 102.406 53.6771C102.245 54.0677 102.01 54.4115 101.714 54.7135C101.411 55.0104 101.068 55.2448 100.677 55.4063C100.286 55.5677 99.8802 55.6458 99.4531 55.6458H96.2604V49.2604Z" fill="white"/>
<path d="M117.453 49H112.13C111.849 49 111.578 49.0521 111.313 49.1615C111.052 49.2708 110.823 49.4219 110.625 49.625C110.422 49.8229 110.271 50.0521 110.161 50.3125C110.052 50.5729 110 50.849 110 51.1302V70.2917C110 70.5781 110.052 70.849 110.161 71.1094C110.271 71.3698 110.422 71.599 110.625 71.8021C110.823 72 111.052 72.151 111.313 72.2604C111.578 72.3698 111.849 72.4219 112.13 72.4219C112.411 72.4219 112.682 72.3698 112.943 72.2604C113.203 72.151 113.437 72 113.635 71.8021C113.833 71.599 113.99 71.3698 114.099 71.1094C114.203 70.849 114.26 70.5781 114.26 70.2917V63.9063H117.453C117.943 63.9063 118.427 63.8594 118.906 63.7604C119.385 63.6667 119.854 63.526 120.307 63.3385C120.76 63.151 121.187 62.9219 121.594 62.651C122 62.3802 122.38 62.0677 122.724 61.724C123.068 61.375 123.38 61 123.651 60.5938C123.922 60.1875 124.151 59.7552 124.339 59.3073C124.526 58.8542 124.667 58.3854 124.766 57.9063C124.859 57.4271 124.906 56.9427 124.906 56.4531C124.906 55.9635 124.859 55.4792 124.766 55C124.667 54.5208 124.526 54.0521 124.339 53.599C124.151 53.1458 123.922 52.7188 123.651 52.3125C123.38 51.9063 123.068 51.526 122.724 51.1823C122.38 50.8385 122 50.526 121.594 50.2552C121.187 49.9844 120.76 49.7552 120.307 49.5677C119.854 49.3802 119.385 49.2396 118.906 49.1406C118.427 49.0469 117.943 49 117.453 49ZM117.453 59.6458H114.26V53.2604H117.453C117.875 53.2604 118.286 53.3385 118.677 53.5C119.068 53.6615 119.411 53.8958 119.714 54.1927C120.01 54.4948 120.245 54.8385 120.406 55.2292C120.568 55.6198 120.646 56.0313 120.646 56.4531C120.646 56.875 120.568 57.2813 120.406 57.6771C120.245 58.0677 120.01 58.4115 119.714 58.7135C119.411 59.0104 119.068 59.2396 118.677 59.4063C118.286 59.5677 117.875 59.6458 117.453 59.6458Z" fill="white"/>
<mask id="mask0_106_2138" style="mask-type:luminance" maskUnits="userSpaceOnUse" x="0" y="0" width="184" height="200">
<path d="M0 0H183.833V200H0V0Z" fill="white"/>
</mask>
<g mask="url(#mask0_106_2138)">
<path d="M58.2239 69.8281H66.5364C67.2708 72.1354 68.1979 74.3698 69.3177 76.5208L63.4323 82.401C62.8437 82.9844 62.3802 83.6563 62.0416 84.4115C61.6979 85.1719 61.5052 85.9635 61.4531 86.7917C61.401 87.6198 61.4948 88.4271 61.7396 89.2188C61.9844 90.0156 62.3646 90.7396 62.8698 91.3906C65.7708 95.1146 69.0781 98.4219 72.8021 101.312C73.4583 101.823 74.1771 102.198 74.9739 102.443C75.7656 102.688 76.5729 102.786 77.401 102.734C78.2291 102.682 79.0208 102.49 79.7812 102.146C80.5364 101.807 81.2083 101.344 81.7916 100.755L87.6719 94.875C89.8281 95.9948 92.0573 96.9219 94.3646 97.6615V105.969C94.3698 106.797 94.5156 107.599 94.8073 108.375C95.1041 109.151 95.526 109.849 96.0729 110.469C96.6198 111.094 97.2604 111.594 97.9948 111.984C98.7291 112.37 99.5052 112.615 100.328 112.719C105.01 113.302 109.687 113.302 114.37 112.719C115.193 112.615 115.969 112.37 116.703 111.984C117.432 111.599 118.073 111.094 118.625 110.469C119.172 109.849 119.594 109.151 119.885 108.375C120.182 107.599 120.328 106.797 120.328 105.969V97.651C122.641 96.9115 124.87 95.9844 127.021 94.8698L132.896 100.75C133.484 101.333 134.156 101.797 134.911 102.141C135.667 102.479 136.458 102.677 137.286 102.729C138.115 102.781 138.927 102.682 139.719 102.438C140.51 102.193 141.234 101.818 141.891 101.307C145.609 98.4115 148.917 95.1042 151.812 91.3854C152.318 90.7292 152.698 90.0052 152.943 89.2135C153.187 88.4219 153.281 87.6094 153.229 86.7812C153.177 85.9531 152.984 85.1615 152.641 84.4062C152.302 83.651 151.839 82.9792 151.25 82.3906L145.37 76.5104C146.49 74.3594 147.417 72.1302 148.156 69.8177H156.464C157.292 69.8177 158.094 69.6667 158.87 69.375C159.646 69.0833 160.344 68.6615 160.964 68.1094C161.589 67.5625 162.094 66.9219 162.479 66.1875C162.865 65.4531 163.109 64.6771 163.214 63.8542C163.797 59.1771 163.797 54.4948 163.214 49.8177C163.109 48.9948 162.865 48.2187 162.479 47.4844C162.089 46.75 161.589 46.1094 160.964 45.5625C160.344 45.0104 159.646 44.5937 158.87 44.2969C158.094 44.0052 157.292 43.8542 156.464 43.8542H148.151C147.411 41.5469 146.484 39.3125 145.365 37.1615L151.245 31.2812C151.833 30.6979 152.297 30.026 152.635 29.2656C152.979 28.5104 153.172 27.7187 153.224 26.8906C153.276 26.0625 153.182 25.2552 152.937 24.4635C152.693 23.6667 152.318 22.9427 151.807 22.2917C148.911 18.5677 145.599 15.2552 141.875 12.3594C141.219 11.849 140.495 11.474 139.703 11.2292C138.911 10.9844 138.099 10.8906 137.276 10.9375C136.448 10.9896 135.656 11.1875 134.896 11.5312C134.141 11.8698 133.469 12.3333 132.885 12.9219L127.016 18.8125C124.865 17.6927 122.635 16.7656 120.323 16.026V7.72917C120.323 6.89583 120.177 6.09375 119.88 5.31771C119.589 4.54167 119.167 3.84375 118.62 3.22396C118.068 2.59896 117.427 2.09375 116.698 1.70833C115.964 1.31771 115.182 1.07292 114.359 0.96875C109.682 0.385417 105 0.385417 100.323 0.96875C99.5 1.07292 98.7239 1.31771 97.9896 1.70833C97.2552 2.09375 96.6146 2.59896 96.0677 3.21875C95.5156 3.83854 95.0989 4.54167 94.8021 5.3125C94.5104 6.08854 94.3594 6.89063 94.3594 7.71875V16.0365C92.0521 16.776 89.8177 17.7031 87.6666 18.8229L81.7916 12.9323C81.2083 12.349 80.5364 11.8854 79.7812 11.5417C79.0208 11.2031 78.2291 11.0052 77.401 10.9531C76.5781 10.901 75.7656 11 74.9739 11.2448C74.1823 11.4896 73.4583 11.8646 72.8021 12.375C69.0781 15.2708 65.7708 18.5833 62.8698 22.3021C62.3646 22.9583 61.9844 23.6823 61.7396 24.474C61.4948 25.2708 61.401 26.0781 61.4531 26.9062C61.5052 27.7344 61.6979 28.526 62.0416 29.2812C62.3802 30.0365 62.8437 30.7083 63.4323 31.2969L69.3125 37.1771C68.1927 39.3281 67.2656 41.5573 66.526 43.8698H58.2239C57.3958 43.8698 56.5937 44.0208 55.8177 44.3125C55.0416 44.6042 54.3437 45.026 53.7239 45.5781C53.0989 46.125 52.5989 46.7656 52.2083 47.5C51.8229 48.2292 51.5781 49.0104 51.4739 49.8333C50.8906 54.5104 50.8906 59.1875 51.4739 63.8698C51.5781 64.6927 51.8229 65.4687 52.2083 66.2031C52.5989 66.9323 53.1041 67.5729 53.7239 68.1198C54.3437 68.6719 55.0416 69.0885 55.8177 69.3854C56.5937 69.6771 57.3958 69.8229 58.2239 69.8281ZM56.9583 50.5104C56.9948 50.1927 57.1302 49.9219 57.3698 49.7083C57.6146 49.4948 57.8958 49.3906 58.2187 49.3958H68.6041C69.2344 49.3958 69.7969 49.2031 70.2916 48.8177C70.7916 48.4375 71.1198 47.9427 71.276 47.3333C72.1354 44.0729 73.4166 40.9896 75.1146 38.0781C75.4323 37.5365 75.5521 36.9531 75.4739 36.3281C75.3906 35.7083 75.1302 35.1719 74.6875 34.7292L67.3385 27.3802C67.1094 27.1563 66.9844 26.8802 66.9635 26.5625C66.9427 26.2396 67.0364 25.9531 67.2344 25.6979C69.8489 22.3385 72.8385 19.3542 76.1979 16.7396C76.4479 16.5417 76.7344 16.4479 77.0573 16.4688C77.375 16.4896 77.651 16.6146 77.875 16.8438L85.2187 24.1927C85.6667 24.6354 86.1979 24.8958 86.8229 24.9792C87.4479 25.0573 88.026 24.9375 88.5729 24.6198C91.4844 22.9219 94.5677 21.6458 97.8281 20.7865C98.4323 20.625 98.9323 20.2969 99.3125 19.7969C99.6979 19.3021 99.8906 18.7396 99.8906 18.1094V7.72917C99.8854 7.40625 99.9896 7.125 100.203 6.88021C100.417 6.64063 100.682 6.5 101.005 6.46354C105.224 5.9375 109.448 5.9375 113.672 6.46354C113.995 6.5 114.26 6.64063 114.474 6.88021C114.687 7.125 114.792 7.40625 114.786 7.72917V18.1146C114.786 18.7448 114.979 19.3073 115.365 19.8021C115.745 20.3021 116.24 20.6302 116.849 20.7865C120.115 21.6458 123.203 22.9271 126.115 24.625C126.661 24.9427 127.24 25.0625 127.865 24.9844C128.49 24.901 129.021 24.6406 129.469 24.1979L136.818 16.849C137.042 16.6198 137.312 16.4948 137.635 16.474C137.958 16.4531 138.245 16.5417 138.495 16.7448C141.854 19.3594 144.844 22.3437 147.453 25.7031C147.656 25.9583 147.745 26.2448 147.724 26.5625C147.703 26.8854 147.578 27.1615 147.349 27.3854L140 34.7344C139.557 35.1771 139.297 35.7135 139.219 36.3333C139.135 36.9583 139.255 37.5417 139.573 38.0833C141.271 40.9948 142.552 44.0781 143.411 47.3385C143.573 47.9427 143.901 48.4427 144.396 48.8229C144.896 49.2083 145.458 49.401 146.083 49.401H156.474C156.797 49.3958 157.078 49.5 157.318 49.7135C157.557 49.9271 157.698 50.1927 157.734 50.5156C158.26 54.7396 158.26 58.9635 157.734 63.1823C157.698 63.5052 157.557 63.7708 157.318 63.9844C157.078 64.1979 156.797 64.3021 156.474 64.2969H146.073C145.443 64.2969 144.88 64.4896 144.385 64.875C143.885 65.2552 143.557 65.75 143.401 66.3594C142.542 69.6198 141.26 72.7031 139.562 75.6146C139.245 76.1563 139.125 76.7396 139.203 77.3646C139.286 77.9896 139.547 78.5208 139.99 78.9688L147.339 86.3125C147.568 86.5417 147.693 86.8125 147.714 87.1354C147.729 87.4531 147.641 87.7448 147.443 87.9948C144.828 91.3542 141.844 94.3385 138.484 96.9531C138.229 97.151 137.943 97.2448 137.625 97.224C137.302 97.2031 137.031 97.0781 136.802 96.849L129.453 89.5C129.01 89.0573 128.474 88.7969 127.854 88.7188C127.229 88.6354 126.646 88.7552 126.104 89.0729C123.193 90.7708 120.109 92.0521 116.849 92.9115C116.24 93.0677 115.745 93.3958 115.365 93.8958C114.979 94.3958 114.786 94.9583 114.786 95.5833V105.974C114.792 106.292 114.687 106.578 114.474 106.818C114.26 107.057 113.995 107.198 113.672 107.234C109.448 107.76 105.224 107.76 101.005 107.234C100.682 107.198 100.417 107.057 100.203 106.818C99.9896 106.573 99.8854 106.292 99.8906 105.974V95.5781C99.8906 94.9479 99.6979 94.3854 99.3125 93.8854C98.9271 93.3906 98.4323 93.0625 97.8229 92.901C94.5677 92.0417 91.4791 90.7656 88.5729 89.0625C88.0312 88.7448 87.4479 88.625 86.8229 88.7083C86.1979 88.7865 85.6667 89.0469 85.2187 89.4948L77.875 96.8438C77.651 97.0729 77.375 97.1979 77.0573 97.2188C76.7344 97.2396 76.4479 97.151 76.1979 96.9479C72.8333 94.3385 69.8489 91.349 67.2344 87.9896C67.0312 87.7396 66.9427 87.4531 66.9635 87.1302C66.9844 86.8073 67.1094 86.5365 67.3385 86.3073L74.6875 78.9635C75.1302 78.5156 75.3906 77.9844 75.4687 77.3594C75.5521 76.7344 75.4323 76.1563 75.1146 75.6094C73.4166 72.6979 72.1354 69.6146 71.276 66.3542C71.1146 65.75 70.7864 65.25 70.2916 64.8698C69.7916 64.4844 69.2291 64.2917 68.6041 64.2917H58.2239C57.901 64.2969 57.6198 64.1927 57.3802 63.9792C57.1354 63.7656 57 63.5 56.9635 63.1823C56.4323 58.9583 56.4323 54.7344 56.9583 50.5104ZM107.344 86.7292C108.323 86.7292 109.297 86.6771 110.271 86.5833C111.245 86.4844 112.214 86.3438 113.172 86.151C114.135 85.9635 115.083 85.724 116.016 85.4375C116.953 85.1563 117.875 84.8281 118.781 84.4531C119.682 84.0781 120.568 83.6615 121.432 83.1979C122.292 82.7344 123.13 82.2344 123.948 81.6875C124.76 81.1458 125.547 80.5625 126.302 79.9427C127.057 79.3229 127.781 78.6667 128.474 77.974C129.167 77.2813 129.823 76.5573 130.443 75.8021C131.062 75.0417 131.646 74.2604 132.193 73.4427C132.734 72.6302 133.234 71.7917 133.698 70.9271C134.161 70.0677 134.578 69.1823 134.953 68.276C135.328 67.375 135.656 66.4531 135.937 65.5156C136.224 64.5781 136.464 63.6302 136.651 62.6719C136.844 61.7083 136.984 60.7448 137.083 59.7708C137.177 58.7969 137.224 57.8177 137.224 56.8385C137.224 55.8594 137.177 54.8854 137.083 53.9115C136.984 52.9375 136.844 51.9688 136.651 51.0104C136.458 50.0521 136.224 49.1042 135.937 48.1667C135.651 47.2292 135.323 46.3073 134.948 45.4062C134.573 44.5 134.156 43.6146 133.693 42.7552C133.234 41.8906 132.729 41.0521 132.187 40.2396C131.641 39.4219 131.062 38.6406 130.437 37.8802C129.818 37.125 129.161 36.401 128.469 35.7083C127.776 35.0156 127.052 34.3594 126.297 33.7396C125.542 33.1198 124.755 32.5365 123.937 31.9948C123.125 31.4531 122.286 30.9479 121.422 30.4896C120.562 30.026 119.677 29.6094 118.771 29.2344C117.87 28.8594 116.948 28.5313 116.01 28.2448C115.073 27.9635 114.125 27.724 113.167 27.5365C112.208 27.3437 111.24 27.1979 110.266 27.1042C109.292 27.0104 108.312 26.9635 107.333 26.9635C106.359 26.9635 105.38 27.0104 104.406 27.1042C103.432 27.2031 102.464 27.3437 101.505 27.5365C100.547 27.7292 99.5989 27.9635 98.6614 28.25C97.7239 28.5365 96.8021 28.8646 95.901 29.2396C94.9948 29.6146 94.1146 30.0313 93.25 30.4948C92.3854 30.9531 91.5469 31.4583 90.7344 32C89.9219 32.5469 89.1354 33.1302 88.3802 33.75C87.6198 34.3698 86.8958 35.026 86.2083 35.7188C85.5156 36.4115 84.8594 37.1354 84.2396 37.8958C83.6146 38.651 83.0364 39.4375 82.4896 40.25C81.9479 41.0625 81.4427 41.901 80.9844 42.7656C80.5208 43.6302 80.1041 44.5156 79.7291 45.4167C79.3594 46.3229 79.026 47.2448 78.7448 48.1771C78.4583 49.1146 78.2239 50.0625 78.0312 51.026C77.8437 51.9844 77.6979 52.9531 77.6041 53.9271C77.5052 54.901 77.4583 55.875 77.4583 56.8542C77.4635 57.8333 77.5104 58.8073 77.6094 59.7812C77.7031 60.7552 77.8489 61.724 78.0416 62.6823C78.2344 63.6406 78.4739 64.5885 78.7552 65.5208C79.0416 66.4583 79.3698 67.3802 79.7448 68.2812C80.1198 69.1875 80.5417 70.0677 81 70.9323C81.4635 71.7917 81.9635 72.6302 82.5104 73.4427C83.0521 74.2552 83.6354 75.0417 84.2552 75.7969C84.8802 76.5521 85.5364 77.276 86.2239 77.9688C86.9166 78.6615 87.6406 79.3177 88.3958 79.9375C89.1562 80.5573 89.9375 81.1406 90.75 81.6823C91.5625 82.224 92.401 82.7292 93.2656 83.1927C94.1302 83.651 95.0104 84.0677 95.9166 84.4427C96.8177 84.8177 97.7396 85.151 98.6719 85.4323C99.6094 85.7188 100.557 85.9583 101.516 86.1458C102.474 86.3385 103.443 86.4844 104.417 86.5781C105.391 86.6771 106.365 86.724 107.344 86.7292ZM107.344 32.4948C108.141 32.4948 108.937 32.5313 109.729 32.6094C110.521 32.6875 111.312 32.8073 112.094 32.9635C112.875 33.1198 113.646 33.3125 114.411 33.5417C115.172 33.776 115.922 34.0417 116.661 34.349C117.396 34.651 118.12 34.9948 118.823 35.3698C119.526 35.7448 120.208 36.1563 120.87 36.599C121.536 37.0417 122.172 37.5156 122.792 38.0208C123.406 38.526 123.995 39.0625 124.562 39.625C125.125 40.1875 125.661 40.7813 126.167 41.3958C126.672 42.0104 127.146 42.651 127.589 43.3177C128.031 43.9792 128.443 44.6615 128.818 45.3646C129.193 46.0677 129.536 46.7865 129.839 47.526C130.146 48.2604 130.411 49.0104 130.646 49.776C130.875 50.5365 131.073 51.3125 131.224 52.0938C131.38 52.875 131.5 53.6615 131.578 54.4583C131.656 55.25 131.693 56.0469 131.693 56.8438C131.693 57.6406 131.656 58.4375 131.578 59.2292C131.5 60.026 131.385 60.8125 131.229 61.5938C131.073 62.375 130.88 63.151 130.646 63.9115C130.417 64.6771 130.146 65.4271 129.844 66.1615C129.536 66.901 129.198 67.6198 128.823 68.3229C128.443 69.026 128.036 69.7083 127.594 70.3698C127.151 71.0365 126.677 71.6771 126.172 72.2917C125.661 72.9063 125.13 73.5 124.568 74.0625C124 74.625 123.411 75.1615 122.797 75.6667C122.177 76.1719 121.536 76.6458 120.875 77.0938C120.214 77.5365 119.531 77.9427 118.828 78.3229C118.125 78.6979 117.401 79.0365 116.667 79.3438C115.932 79.6458 115.182 79.9167 114.417 80.1458C113.656 80.3802 112.88 80.5729 112.099 80.7292C111.318 80.8854 110.531 81 109.734 81.0781C108.943 81.1563 108.146 81.1979 107.349 81.1979C106.552 81.1979 105.755 81.1615 104.964 81.0833C104.167 81.0052 103.38 80.8854 102.599 80.7292C101.818 80.5781 101.042 80.3802 100.281 80.151C99.5156 79.9219 98.7656 79.651 98.0312 79.349C97.2917 79.0417 96.5729 78.7031 95.8698 78.3281C95.1666 77.9479 94.4844 77.5417 93.8177 77.099C93.1562 76.6563 92.5156 76.1823 91.901 75.6771C91.2812 75.1667 90.6927 74.6354 90.1302 74.0729C89.5625 73.5052 89.0312 72.9167 88.5208 72.3021C88.0156 71.6823 87.5416 71.0469 87.0989 70.3802C86.6562 69.7188 86.2448 69.0365 85.8698 68.3333C85.4948 67.6302 85.151 66.9115 84.8489 66.1719C84.5416 65.4375 84.276 64.6875 84.0416 63.9219C83.8125 63.1615 83.6146 62.3854 83.4583 61.6042C83.3021 60.8229 83.1875 60.0365 83.1094 59.2396C83.0312 58.4479 82.9896 57.651 82.9896 56.8542C82.9896 56.0573 83.0312 55.2604 83.1094 54.4688C83.1875 53.6771 83.3073 52.8854 83.4635 52.1042C83.6198 51.3229 83.8125 50.5521 84.0416 49.7865C84.276 49.026 84.5416 48.276 84.8489 47.5365C85.1562 46.8021 85.4948 46.0781 85.8698 45.375C86.25 44.6719 86.6562 43.9896 87.0989 43.3281C87.5416 42.6667 88.0156 42.026 88.526 41.4062C89.0312 40.7917 89.5625 40.2031 90.1302 39.6354C90.6927 39.0729 91.2812 38.5365 91.901 38.0312C92.5156 37.526 93.1562 37.0521 93.8177 36.6094C94.4791 36.1667 95.1614 35.7552 95.8646 35.3802C96.5677 35.0052 97.2916 34.6615 98.026 34.3542C98.7604 34.0521 99.5104 33.7813 100.276 33.5521C101.036 33.3177 101.812 33.125 102.594 32.9688C103.375 32.8125 104.161 32.6927 104.958 32.6146C105.75 32.5365 106.547 32.4948 107.344 32.4948ZM182.818 138.062C180.943 134.016 176.052 131.135 169.359 133.812L119.01 153.969C114.552 154.495 110.125 154.281 105.734 153.328L128.823 146.062C136.786 143.557 139.062 137.229 137.812 132.411C137.63 131.729 137.38 131.078 137.068 130.443C136.755 129.813 136.385 129.219 135.958 128.661C135.531 128.104 135.052 127.589 134.526 127.125C134 126.656 133.432 126.245 132.823 125.891C132.219 125.531 131.583 125.234 130.917 125.005C130.255 124.771 129.573 124.604 128.88 124.5C128.182 124.401 127.484 124.365 126.781 124.396C126.078 124.432 125.38 124.531 124.698 124.703C120.745 125.521 116.922 126.495 113.219 127.438C105.771 129.339 98.7396 131.13 93.4271 130.812C89.6562 130.526 85.9271 129.969 82.2396 129.135C72.4687 127.156 63.2448 125.281 45.5937 134.167C45.4791 134.224 45.3698 134.292 45.2656 134.365L36.0989 140.703C35.6771 140.354 35.2083 140.078 34.6979 139.87C34.1875 139.667 33.6614 139.536 33.1094 139.495C32.5625 139.448 32.0208 139.484 31.4844 139.604C30.9479 139.724 30.4427 139.922 29.9635 140.198L24.6406 143.266C24.1562 142.823 23.6146 142.464 23.0156 142.193C22.4166 141.922 21.7864 141.75 21.1354 141.677C20.4791 141.604 19.8333 141.635 19.1875 141.771C18.5416 141.906 17.9323 142.135 17.3646 142.464L3.93227 150.214C3.58331 150.417 3.25519 150.651 2.9479 150.922C2.64581 151.188 2.36977 151.484 2.11977 151.807C1.87498 152.13 1.66144 152.474 1.48436 152.839C1.30206 153.203 1.16144 153.578 1.05727 153.974C0.947899 154.365 0.885398 154.766 0.859357 155.167C0.828107 155.573 0.843731 155.979 0.895815 156.38C0.947899 156.786 1.03644 157.177 1.16665 157.562C1.29686 157.948 1.46352 158.318 1.66665 158.667L23.5521 196.578C24.4062 198.062 25.6562 199.021 27.3125 199.458C27.8437 199.599 28.3854 199.672 28.9323 199.672C30.0312 199.672 31.0573 199.396 32.0104 198.844L45.4323 191.094C46.0052 190.766 46.5104 190.354 46.9531 189.859C47.3906 189.37 47.7448 188.823 48.0104 188.219C48.276 187.615 48.4427 186.984 48.5052 186.328C48.5729 185.677 48.5312 185.026 48.3906 184.38L53.7083 181.312C54.1979 181.026 54.6302 180.677 55.0104 180.26C55.3854 179.839 55.6927 179.375 55.9271 178.859C56.1614 178.349 56.3073 177.812 56.375 177.25C56.4375 176.693 56.4166 176.135 56.3073 175.578C57.1146 175.062 58 174.802 58.9583 174.792C76.8021 182.224 85.4219 185.479 95.4948 185.479C102.99 185.479 111.276 183.677 124.755 180.458C124.979 180.406 125.193 180.323 125.396 180.214L176.849 152.911C183.552 149.354 184.932 142.609 182.823 138.062H182.818ZM42.9739 185.901C42.9271 186.078 42.8281 186.214 42.6719 186.302L29.2448 194.052C29.0885 194.141 28.9219 194.167 28.7448 194.115C28.5677 194.068 28.4375 193.969 28.3437 193.812L6.45831 155.906C6.36457 155.745 6.34373 155.583 6.39581 155.406C6.44269 155.229 6.54165 155.094 6.6979 155.005L20.125 147.255C20.2239 147.198 20.3281 147.167 20.4427 147.167C20.5052 147.167 20.5677 147.177 20.625 147.193C20.8021 147.234 20.9323 147.339 21.026 147.495L42.9114 185.396C43.0052 185.552 43.026 185.724 42.9739 185.901ZM45.8594 179.448L27.6614 147.917L32.6302 145.047L50.8281 176.578L45.8594 179.448ZM174.255 148.026L123.12 175.161C92.9114 182.37 91.0625 182.172 61.0729 169.698C59.8489 169.323 58.5989 169.219 57.3281 169.391C56.0573 169.557 54.8802 169.984 53.7916 170.661L39.1666 145.312L48.2344 139.042C64.0625 131.12 71.9687 132.719 81.1198 134.578C85.0625 135.464 89.0469 136.057 93.0781 136.354C99.25 136.729 106.693 134.828 114.573 132.818C118.214 131.891 121.974 130.927 125.802 130.135C126.141 130.036 126.49 129.969 126.839 129.938C127.193 129.906 127.542 129.911 127.896 129.948C128.245 129.984 128.589 130.057 128.927 130.167C129.26 130.271 129.583 130.411 129.896 130.583C130.203 130.755 130.49 130.953 130.76 131.182C131.031 131.411 131.276 131.661 131.495 131.943C131.714 132.219 131.901 132.516 132.062 132.828C132.219 133.146 132.349 133.474 132.443 133.812C133.062 136.188 131.995 139.271 127.151 140.792L92.1146 151.823C91.7864 151.938 91.4896 152.104 91.2239 152.323C90.9583 152.547 90.7448 152.813 90.5781 153.115C90.4114 153.417 90.3073 153.74 90.2604 154.083C90.2187 154.427 90.2344 154.766 90.3177 155.099C90.401 155.438 90.5416 155.745 90.7396 156.031C90.9375 156.312 91.1823 156.552 91.4687 156.745C91.7552 156.938 92.0677 157.068 92.4062 157.141C92.7448 157.219 93.0833 157.229 93.4271 157.177C96.1614 156.948 98.8437 157.245 101.469 158.062C107.573 159.698 113.766 160.151 120.047 159.411C120.281 159.38 120.51 159.323 120.729 159.234L171.427 138.948C174.443 137.74 176.828 138.281 177.807 140.391C178.844 142.63 177.953 146.068 174.255 148.026ZM35.6406 184.094C35.8229 184.411 35.9375 184.755 35.9844 185.12C36.0312 185.479 36.0104 185.839 35.9166 186.193C35.8177 186.547 35.6614 186.87 35.4375 187.161C35.2135 187.453 34.9427 187.688 34.625 187.875C34.3073 188.057 33.9687 188.172 33.6041 188.219C33.2396 188.266 32.8802 188.245 32.526 188.151C32.1719 188.052 31.8489 187.896 31.5573 187.672C31.2708 187.448 31.0312 187.177 30.8489 186.859L26.25 178.901C26.0677 178.583 25.9531 178.245 25.9062 177.88C25.8541 177.516 25.8802 177.156 25.9739 176.802C26.0677 176.448 26.2291 176.125 26.4531 175.833C26.6771 175.542 26.9479 175.302 27.2656 175.12C27.5833 174.938 27.9219 174.823 28.2864 174.776C28.651 174.724 29.0104 174.75 29.3646 174.844C29.7187 174.938 30.0417 175.099 30.3333 175.323C30.625 175.547 30.8646 175.818 31.0469 176.135L35.6406 184.094Z" fill="white"/>
</g>
</svg>
