<svg width="30" height="30" viewBox="0 0 30 30" fill="none" xmlns="http://www.w3.org/2000/svg">
<path fill-rule="evenodd" clip-rule="evenodd" d="M15 30C23.2843 30 30 23.2843 30 15C30 6.71574 23.2843 0 15 0C6.71574 0 0 6.71574 0 15C0 23.2843 6.71574 30 15 30ZM8.57143 17.1429C9.75489 17.1429 10.7143 16.1835 10.7143 15C10.7143 13.8165 9.75489 12.8571 8.57143 12.8571C7.38797 12.8571 6.42857 13.8165 6.42857 15C6.42857 16.1835 7.38797 17.1429 8.57143 17.1429ZM17.1429 15C17.1429 16.1835 16.1835 17.1429 15 17.1429C13.8165 17.1429 12.8571 16.1835 12.8571 15C12.8571 13.8165 13.8165 12.8571 15 12.8571C16.1835 12.8571 17.1429 13.8165 17.1429 15ZM21.4286 17.1429C22.6121 17.1429 23.5714 16.1835 23.5714 15C23.5714 13.8165 22.6121 12.8571 21.4286 12.8571C20.2451 12.8571 19.2857 13.8165 19.2857 15C19.2857 16.1835 20.2451 17.1429 21.4286 17.1429Z" fill="#9A9A9A"/>
</svg>
