<svg width="35" height="35" viewBox="0 0 35 35" fill="none" xmlns="http://www.w3.org/2000/svg">
<path d="M29.1667 25.047L26.25 22.1303V5.83341H15.823L12.9063 8.75008L10.7917 6.70841L14.5834 2.91675H26.25C27.0521 2.91675 27.739 3.20258 28.3107 3.77425C28.8823 4.34591 29.1677 5.0323 29.1667 5.83341V25.047ZM29.8959 33.9792L8.75004 12.8334V29.1667H26.25V26.2136L29.1667 29.1303V29.1667C29.1667 29.9688 28.8814 30.6557 28.3107 31.2274C27.74 31.799 27.0531 32.0844 26.25 32.0834H8.75004C7.94796 32.0834 7.26157 31.7981 6.69087 31.2274C6.12018 30.6567 5.83435 29.9698 5.83337 29.1667V11.6667L6.70837 10.7917L1.02087 5.10425L3.099 3.06258L31.9375 31.9011L29.8959 33.9792Z" fill="white"/>
</svg>
