<svg width="18" height="18" viewBox="0 0 18 18" fill="none" xmlns="http://www.w3.org/2000/svg">
<path d="M0 2.25C0 1.62773 0.502734 1.125 1.125 1.125H3.9375C6.73242 1.125 9 3.39258 9 6.1875C9 8.25469 7.7625 10.0301 5.98711 10.8176L7.79414 15.3316C8.02617 15.9082 7.74492 16.5621 7.16836 16.7941C6.5918 17.0262 5.93789 16.7449 5.70586 16.1684L3.73711 11.25H2.25V15.75C2.25 16.3723 1.74727 16.875 1.125 16.875C0.502734 16.875 0 16.3723 0 15.75V2.25ZM2.25 9H3.9375C5.49141 9 6.75 7.74141 6.75 6.1875C6.75 4.63359 5.49141 3.375 3.9375 3.375H2.25V9ZM11.25 5.625H14.0625C16.2387 5.625 18 7.38633 18 9.5625C18 11.7387 16.2387 13.5 14.0625 13.5H12.375V16.875C12.375 17.4973 11.8723 18 11.25 18C10.6277 18 10.125 17.4973 10.125 16.875V6.75C10.125 6.12773 10.6277 5.625 11.25 5.625ZM14.0625 11.25C14.9941 11.25 15.75 10.4941 15.75 9.5625C15.75 8.63086 14.9941 7.875 14.0625 7.875H12.375V11.25H14.0625Z" fill="black"/>
</svg>
